<svg class="svg-icon" style="width: 1em; height: 1em;vertical-align: middle;fill: currentColor;overflow: hidden;" viewBox="0 0 1024 1024" version="1.1" xmlns="http://www.w3.org/2000/svg"><path d="M384 463.99488c0 26.39872-21.6064 48.00512-48.00512 48.00512l-96.01024 0c-26.39872 0-48.00512-21.6064-48.00512-48.00512l0-96.01024c0-26.39872 21.6064-48.00512 48.00512-48.00512l96.01024 0c26.39872 0 48.00512 21.6064 48.00512 48.00512l0 96.01024z"  /><path d="M704 463.99488c0 26.39872-21.6064 48.00512-48.00512 48.00512l-96.01024 0c-26.39872 0-48.00512-21.6064-48.00512-48.00512l0-96.01024c0-26.39872 21.6064-48.00512 48.00512-48.00512l96.01024 0c26.39872 0 48.00512 21.6064 48.00512 48.00512l0 96.01024z"  /><path d="M384 783.99488c0 26.39872-21.6064 48.00512-48.00512 48.00512l-96.01024 0c-26.39872 0-48.00512-21.6064-48.00512-48.00512l0-96.01024c0-26.39872 21.6064-48.00512 48.00512-48.00512l96.01024 0c26.39872 0 48.00512 21.6064 48.00512 48.00512l0 96.01024z"  /><path d="M704 783.99488c0 26.39872-21.6064 48.00512-48.00512 48.00512l-96.01024 0c-26.39872 0-48.00512-21.6064-48.00512-48.00512l0-96.01024c0-26.39872 21.6064-48.00512 48.00512-48.00512l96.01024 0c26.39872 0 48.00512 21.6064 48.00512 48.00512l0 96.01024z"  /><path d="M912.0768 160.01024l111.9232-111.9232 0-48.08704-48.08704 0-111.9232 111.9232-111.9232-111.9232-48.08704 0 0 48.08704 111.9232 111.9232-111.9232 111.9232 0 48.08704 48.08704 0 111.9232-111.9232 111.9232 111.9232 48.08704 0 0-48.08704z"  /><path d="M0 768l64 0 0 128-64 0 0-128z"  /><path d="M0 576l64 0 0 128-64 0 0-128z"  /><path d="M832 448l64 0 0 128-64 0 0-128z"  /><path d="M832 832l64 0 0 128-64 0 0-128z"  /><path d="M832 640l64 0 0 128-64 0 0-128z"  /><path d="M0 384l64 0 0 128-64 0 0-128z"  /><path d="M0 192l64 0 0 128-64 0 0-128z"  /><path d="M512 128l128 0 0 64-128 0 0-64z"  /><path d="M320 128l128 0 0 64-128 0 0-64z"  /><path d="M128 128l128 0 0 64-128 0 0-64z"  /><path d="M448 960l128 0 0 64-128 0 0-64z"  /><path d="M640 960l128 0 0 64-128 0 0-64z"  /><path d="M256 960l128 0 0 64-128 0 0-64z"  /><path d="M64 960l128 0 0 64-128 0 0-64z"  /></svg>